<?xml version="1.0" encoding="UTF-8" standalone="no"?>
<!-- Created with Inkscape (http://www.inkscape.org/) -->

<svg
   xmlns:dc="http://purl.org/dc/elements/1.1/"
   xmlns:cc="http://creativecommons.org/ns#"
   xmlns:rdf="http://www.w3.org/1999/02/22-rdf-syntax-ns#"
   xmlns:svg="http://www.w3.org/2000/svg"
   xmlns="http://www.w3.org/2000/svg"
   xmlns:sodipodi="http://sodipodi.sourceforge.net/DTD/sodipodi-0.dtd"
   xmlns:inkscape="http://www.inkscape.org/namespaces/inkscape"
   id="svg2"
   version="1.1"
   inkscape:version="0.48.5 r10040"
   width="400"
   height="400"
   sodipodi:docname="pirate-clip-art-pirate-skull-captain-with-hat-and-cross-bones-pirate-clipart-86335624.jpg">
  <metadata
     id="metadata8">
    <rdf:RDF>
      <cc:Work
         rdf:about="">
        <dc:format>image/svg+xml</dc:format>
        <dc:type
           rdf:resource="http://purl.org/dc/dcmitype/StillImage" />
        <dc:title></dc:title>
      </cc:Work>
    </rdf:RDF>
  </metadata>
  <defs
     id="defs6">
    <inkscape:path-effect
       effect="spiro"
       id="path-effect6660"
       is_visible="true" />
    <inkscape:path-effect
       effect="spiro"
       id="path-effect6655"
       is_visible="true" />
    <inkscape:path-effect
       effect="spiro"
       id="path-effect6648"
       is_visible="true" />
    <inkscape:path-effect
       effect="spiro"
       id="path-effect6624"
       is_visible="true" />
    <inkscape:path-effect
       effect="spiro"
       id="path-effect6609"
       is_visible="true" />
    <inkscape:path-effect
       effect="spiro"
       id="path-effect6604"
       is_visible="true" />
    <inkscape:path-effect
       effect="spiro"
       id="path-effect3811"
       is_visible="true" />
    <inkscape:path-effect
       effect="spiro"
       id="path-effect3805"
       is_visible="true" />
    <inkscape:path-effect
       effect="spiro"
       id="path-effect3782"
       is_visible="true" />
    <inkscape:path-effect
       effect="spiro"
       id="path-effect3777"
       is_visible="true" />
    <inkscape:path-effect
       effect="spiro"
       id="path-effect3772"
       is_visible="true" />
    <inkscape:path-effect
       effect="spiro"
       id="path-effect3767"
       is_visible="true" />
    <inkscape:path-effect
       effect="spiro"
       id="path-effect3763"
       is_visible="true" />
    <inkscape:path-effect
       effect="spiro"
       id="path-effect2990"
       is_visible="true" />
  </defs>
  <sodipodi:namedview
     pagecolor="#ffffff"
     bordercolor="#666666"
     borderopacity="1"
     objecttolerance="10"
     gridtolerance="10"
     guidetolerance="10"
     inkscape:pageopacity="0"
     inkscape:pageshadow="2"
     inkscape:window-width="1920"
     inkscape:window-height="1014"
     id="namedview4"
     showgrid="false"
     inkscape:zoom="1"
     inkscape:cx="40.943338"
     inkscape:cy="217.45631"
     inkscape:window-x="1366"
     inkscape:window-y="27"
     inkscape:window-maximized="1"
     inkscape:current-layer="layer1" />
  <g
     inkscape:groupmode="layer"
     id="layer1"
     inkscape:label="pirate"
     style="display:inline"
     sodipodi:insensitive="true">
    <g
       id="g6663">
      <path
         inkscape:connector-curvature="0"
         inkscape:original-d="m 73.10765,192.06267 -29.962151,27.56518 67.714461,-26.3667 z"
         inkscape:path-effect="#path-effect3763"
         id="path3761"
         d="m 73.10765,192.06267 -29.962151,27.56518 67.714461,-26.3667 -37.75231,-1.19848"
         style="color:#000000;fill:#000000;fill-opacity:1;fill-rule:nonzero;stroke:none;stroke-width:3;marker:none;visibility:visible;display:inline;overflow:visible;enable-background:accumulate" />
      <path
         sodipodi:nodetypes="cccc"
         inkscape:connector-curvature="0"
         id="path3765"
         d="m 107.2645,180.67705 0.59925,11.98486 c 17.32589,-16.45382 128.25824,-41.17699 178.57442,-14.98107 -17.19412,-13.26592 -104.40868,-34.59873 -179.17367,2.99621"
         style="color:#000000;fill:#000000;fill-opacity:1;fill-rule:nonzero;stroke:none;stroke-width:3;marker:none;visibility:visible;display:inline;overflow:visible;enable-background:accumulate" />
      <path
         sodipodi:nodetypes="cccc"
         inkscape:connector-curvature="0"
         id="path3770"
         d="m 110.26072,177.68083 c 72.3786,-34.12259 129.17731,-23.19053 176.17745,-1.79772 -22.85386,-12.55613 -25.27296,-31.52801 -94.6804,-35.35534 -55.84956,7.79493 -63.32863,23.32914 -81.49705,37.15306"
         style="color:#000000;fill:#000000;fill-opacity:1;fill-rule:nonzero;stroke:none;stroke-width:3;marker:none;visibility:visible;display:inline;overflow:visible;enable-background:accumulate" />
      <path
         sodipodi:nodetypes="cccc"
         inkscape:connector-curvature="0"
         id="path3775"
         d="M 106.66526,208.24223 C 122.28856,246.64268 71.513395,275.65728 85.092511,296.9302 72.581892,276.71303 63.343604,252.05483 29.362909,260.97562 35.108998,238.64965 112.69838,229.23703 106.66526,208.24223"
         style="color:#000000;fill:#000000;fill-opacity:1;fill-rule:nonzero;stroke:none;stroke-width:3;marker:none;visibility:visible;display:inline;overflow:visible;enable-background:accumulate" />
      <path
         sodipodi:nodetypes="cccccccccccccccccc"
         inkscape:connector-curvature="0"
         id="path3780"
         d="m 287.03741,202.84904 -2.99622,14.38183 17.37805,-7.79015 -16.77879,10.18712 0.59924,3.59546 c 18.77628,-10.33091 41.95678,-27.39543 56.32884,-31.75988 3.69679,6.0996 5.62706,3.36659 7.79016,1.79773 2.33084,0.33605 4.62551,0.41891 5.39319,-10.18713 l 3.59546,4.79395 -2.39698,4.79394 5.99243,4.1947 c 3.49733,7.88479 11.09643,3.46429 20.97351,-7.79016 0.30976,-5.67037 1.08625,-11.45743 -4.79394,-15.58032 -6.93204,-3.81492 -7.71619,-9.67912 -10.18714,-14.98107 -7.1423,-5.37153 -9.49604,1.22835 -13.78259,2.99621 l -2.99621,6.59168 c -8.33119,-6.13396 -6.95272,-2.55827 -9.58789,-2.99622 -16.93639,18.78736 -36.14901,26.19355 -54.53112,37.75231"
         style="color:#000000;fill:#000000;fill-opacity:1;fill-rule:nonzero;stroke:none;stroke-width:3;marker:none;visibility:visible;display:inline;overflow:visible;enable-background:accumulate" />
      <path
         sodipodi:nodetypes="cczcccccccscc"
         inkscape:connector-curvature="0"
         id="path3803"
         d="m 106.66526,179.47856 c 43.9966,-63.15592 140.05462,-59.6366 181.57064,-1.19849 42.68746,7.82839 58.16717,-40.02557 74.90538,-27.56518 16.73822,12.4604 -0.24222,-47.29174 -5.99243,-46.1417 C 321.01714,71.038198 326.65544,50.381458 296.6253,35.660234 247.46714,32.159592 250.77678,41.7759 236.701,47.045852 c -18.71994,8.788898 -25.18873,18.177039 -37.75231,26.965937 -9.50784,2.356948 -10.78637,0 -16.7788,0.599243 C 161.32919,64.090915 162.28359,56.371788 156.40244,48.843581 153.66804,31.898845 151.94155,7.3947975 146.2153,12.888999 133.11047,10.22472 126.545,49.000309 110.26072,54.236769 73.2166,66.148873 2.0191009,110.77162 61.12279,154.31035 c 9.324075,7.33396 35.115945,26.93859 45.54247,25.16821"
         style="color:#000000;fill:#000000;fill-opacity:1;fill-rule:nonzero;stroke:none;stroke-width:3;marker:none;visibility:visible;display:inline;overflow:visible;enable-background:accumulate" />
      <path
         sodipodi:nodetypes="ccsc"
         inkscape:connector-curvature="0"
         id="path3809"
         d="m 156.40243,41.053422 c 42.77856,-26.940941 69.0274,-17.301722 95.87888,-4.194701 -31.77087,12.176364 -34.0406,22.958293 -52.73338,32.359124 -21.07086,10.596799 -36.1259,-15.979748 -43.1455,-28.164423"
         style="color:#000000;fill:#000000;fill-opacity:1;fill-rule:nonzero;stroke:none;stroke-width:3;marker:none;visibility:visible;display:inline;overflow:visible;enable-background:accumulate" />
      <g
         id="g6490"
         transform="matrix(0.12977283,0.08181002,-0.08181002,0.12977283,258.15405,41.164687)">
        <path
           inkscape:connector-curvature="0"
           style="fill:#ffffff;fill-opacity:1;stroke:#000000;stroke-width:1"
           id="path3065"
           d="m 308.73454,182.52135 c 3,-9 0,-25 1,-35 1,-6 5,-12 8,-18 2,-6 5,-14 12,-16 -2,6 -3,6 -5,11 0,0 -3,11 -3,11 -2,5 -5,7 -6,12 -2,7 -1,24 -1,32 0,2 0,5 -2,7 -3,4 -12,1 -11,11 0,1 0,3 1,4 4,9 20,12 28,16 8,5 6,10 14,15 8,6 29,6 39,5 3,-1 8,-1 11,-3 8,-3 9,-11 17,-16 6,-3 19,-5 25,-14 1,-1 2,-3 2,-4 3,-11 -10,-7 -13,-14 -2,-5 1,-21 2,-26 0,0 3,3 3,3 0,0 0,9 0,9 0,0 1,10 1,10 11,-2 10,-15 11,-24 2,-24 2,-39 -15,-58 -10,-10 -23,-18 -37,-20 0,0 -9,0 -9,0 0,0 -7,-1 -7,-1 0,0 -8,1 -8,1 -13,1 -22,1 -33,7 -8,4 -13,9 -19,16 -15,16 -18,36 -15,57 1,8 3,17 9,22 z m 33,-30 c 14,-1 24,9 19,23 -4,9 -13,16 -23,18 -9,1 -13,-5 -13,-13 0,-13 2,-24 17,-28 z m 56,0 c 12,0 18,10 19,21 0,3 1,6 1,8 -1,7 -8,12 -15,13 -11,0 -24,-17 -23,-27 2,-9 10,-13 18,-15 z m -18,61 c 0,0 -11,-2 -11,-2 0,0 -9,3 -9,3 -1,-7 2,-17 5,-24 1,-2 3,-6 5,-7 4,-1 5,4 5,6 2,8 5,16 5,24 z" />
        <path
           inkscape:connector-curvature="0"
           style="fill:#ffffff;fill-opacity:1;stroke:#000000;stroke-width:1"
           id="path3067"
           d="m 418.73454,229.52135 c -3,1 -7,1 -10,3 -10,7 -5,24 -14,35 -4,5 -13,7 -20,7 -13,0 -29,-1 -35,-14 -5,-9 2,-18 -9,-29 -2,-1 -5,-4 -7,-4 -3,0 -2,4 -2,6 0,0 1,20 1,20 0,15 4,15 11,24 4,6 7,12 14,15 9,3 19,3 28,2 7,0 11,1 18,-3 7,-4 19,-20 21,-28 0,0 1,-14 1,-14 2,-10 3,-8 3,-20 z" />
        <path
           inkscape:connector-curvature="0"
           style="fill:#ffffff;fill-opacity:1;stroke:#000000;stroke-width:1"
           id="path3069"
           d="m 601.73454,125.52135 c -15,21 -31.265,38.794 -49,60 0,0 -24,27 -24,27 -20,19 -70,56 -93,71 -13,9 -27,16 -41,22 0,0 -18.26,8.84 -18.26,8.84 3,3 8.58,4.64 13.63,7 3,0 13.63,-5.84 16.63,-7.84 0,0 32,-18 32,-18 6,-4 12,-9 19,-10 -3,7 -10,11 -17,15 0,0 -19,11 -19,11 0,0 -19.95,11.37 -22.68,13.26 5.47,2.16 13.68,4.64 18.89,6.74 5,0 11.79,-5 15.79,-7 11,-6 25,-15 36,-23 0,0 18,-12 18,-12 14,-11 28,-23 41,-36 10,-9 20,-18 28,-29 11,-13 18,-28 26,-43 9,-14 12,-23 17,-38 1,-5 4,-13 2,-18 z" />
        <path
           inkscape:connector-curvature="0"
           style="fill:#ffffff;fill-opacity:1;stroke:#000000;stroke-width:1"
           id="path3071"
           d="m 142.73454,120.52135 c -3,11 1,24 5,34 9,24 24,45 39,65 9,13 24,29 35,40 0,0 12,10 12,10 0,0 26,23 26,23 21,16 60,40 84,51 0,0 32,14 32,14 0,0 13,5 13,5 15,6 30,10 46,13 9,2 19,5 28,5 -3,-11 -9,-10 -18,-13 0,0 -33,-13 -33,-13 -46,-19 -97,-38 -133,-74 7,0 12,6 17,10 7,5 16,11 24,16 22,13 72,36 97,45 10,4 27,11 37,11 8,1 19,-4 25,-8 -4,-4 -8,-3 -14,-4 0,0 -31,-9 -31,-9 -27,-7 -53,-17 -78,-30 0,0 -14,-6 -14,-6 0,0 -19,-12 -19,-12 0,0 -23,-15 -23,-15 0,0 -24,-19 -24,-19 0,0 -41,-32 -41,-32 0,0 -38,-39 -38,-39 0,0 -19,-22 -19,-22 0,0 -20,-22 -20,-22 0,0 -15,-24 -15,-24 z" />
        <path
           inkscape:connector-curvature="0"
           style="fill:#ffffff;fill-opacity:1;stroke:#000000;stroke-width:1"
           id="path3073"
           d="m 463.73454,367.52135 c 2,4 6,10 6,15 0,11 -13,21 -23,20 -4,-1 -13,-6 -16,0 -1,2 -1,4 0,5 0,4 5,6 9,8 11,3 23,-1 32,-7 7,-4 12,-11 14,-19 0,0 2,-13 2,-13 1,-4 5,-5 10,-12 6,-8 12,-22 20,-28 3,-2 6,-3 10,-4 -2,-3 -4,-5 -6,-8 -2,-1 -4,-3 -6,-3 -3,-1 -7,-1 -10,1 -14,7 -11,20 -19,30 -6,8 -13,12 -23,15 z" />
        <path
           inkscape:connector-curvature="0"
           style="fill:#ffffff;fill-opacity:1;stroke:#000000;stroke-width:1"
           id="path3075"
           d="m 495.73454,380.52135 c 7,3 13,2 20,2 0,0 15,1 15,1 7,0 9,-4 12,-10 1,-2 2,-6 0,-8 -2,-2 -6,-2 -9,-2 0,0 -17,1 -17,1 -3,0 -8,0 -11,1 -5,3 -9,10 -10,15 z" />
        <path
           inkscape:connector-curvature="0"
           style="fill:#ffffff;fill-opacity:1;stroke:#000000;stroke-width:1"
           id="path3077"
           d="m 549.73454,394.52135 c -5,-2 -8,-4 -11,-8 -1,1 -2,1 -3,2 -1,5 12,17 14,6 z" />
        <path
           inkscape:connector-curvature="0"
           style="fill:#ffffff;fill-opacity:1;stroke:#000000;stroke-width:1"
           id="path3079"
           d="m 542.73454,360.52135 c 0,0 8,5 8,5 -2,4 -7,12 -6,17 1,10 15,10 21,4 7,-8 7,-20 -3,-26 -6,-3 -13,-2 -20,0 z" />
        <path
           inkscape:connector-curvature="0"
           style="fill:#ffffff;fill-opacity:1;stroke:#000000;stroke-width:1"
           id="path3081"
           d="m 183.73454,388.52135 c 0,0 1,1 1,1 8,-2 13,-5 14,-13 -6,1 -12,7 -15,12 z" />
        <path
           inkscape:connector-curvature="0"
           style="fill:#ffffff;fill-opacity:1;stroke:#000000;stroke-width:1"
           id="path3083"
           d="m 190.73454,351.52135 c -3,-2 -6,-3 -10,-3 -3,0 -6,0 -9,1 -10,4 -11,20 -3,27 4,4 14,6 18,1 4,-4 3,-9 1,-14 -1,-3 -3,-7 -1,-9 1,-2 3,-2 4,-3 z" />
        <path
           inkscape:connector-curvature="0"
           style="fill:#ffffff;fill-opacity:1;stroke:#000000;stroke-width:1"
           id="path3085"
           d="m 189.73454,355.52135 c 1,3 6,15 8,17 3,2 6,2 9,2 0,0 18,-1 18,-1 0,0 13,0 13,0 0,-3 0,-6 -1,-8 -3,-8 -14,-12 -22,-12 0,0 -9,1 -9,1 -6,0 -11,-1 -16,1 z" />
        <path
           inkscape:connector-curvature="0"
           style="fill:#ffffff;fill-opacity:1;stroke:#000000;stroke-width:1"
           id="path3087"
           d="m 208.73454,323.52135 c 19,5 19,21 27,32 3,4 11,10 12,14 1,3 0,4 1,11 2,9 8,18 16,23 9,6 17,10 28,7 6,-2 12,-6 9,-13 -3,-7 -14,0 -21,-2 -7,-3 -15,-13 -15,-21 0,0 4,-14 4,-14 -11,-4 -24,-13 -29,-24 -3,-7 -3,-17 -8,-22 -9,-7 -21,-1 -24,9 z" />
        <path
           inkscape:connector-curvature="0"
           style="fill:#ffffff;fill-opacity:1;stroke:#000000;stroke-width:1"
           id="path3089"
           d="m 256.73454,346.52135 c 3,4 5,5 9,7 14,8 23,2 37,-1 0,0 29,-9 29,-9 -3.84,-2.58 -12.42,-7.95 -16,-10 0,0 -19,5 -19,5 0,0 -40,8 -40,8 z" />
        <path
           inkscape:connector-curvature="0"
           style="fill:#ffffff;fill-opacity:1;stroke:#000000;stroke-width:1"
           id="path3091"
           d="m 270.73454,375.52135 c 26,0 50,-8 75,-14 0,0 11,-5.206 14.676,-5.206 -3.47,-2.529 -17.622,-7.638 -19.836,-9.634 -3,0.89 -14.84,4.84 -18.84,5.84 0,0 -25,7 -25,7 0,0 -12,3 -12,3 -7,3 -12,4 -14,13 z" />
        <path
           inkscape:connector-curvature="0"
           style="fill:#ffffff;fill-opacity:1;stroke:#000000;stroke-width:1;stroke-opacity:1"
           id="path3093"
           d="m 347.73454,260.52135 c 0,2.5 0.25,5.535 1.25,7.035 1,1.5 4.755,1.639 5.75,0.965 0.808,-0.82 -0.75,-4.75 -1.625,-5.875 -0.875,-1.125 -2.375,-1.625 -5.375,-2.125 z" />
        <path
           inkscape:connector-curvature="0"
           style="fill:#ffffff;fill-opacity:1;stroke:#000000;stroke-width:1;stroke-opacity:1"
           id="path3095"
           d="m 355.73454,261.52135 c 0,0 1,5 1,5 0,1 1,3 2,4 4,2 6,-8 3,-9 -2,-1 -4,0 -6,0 z" />
        <path
           inkscape:connector-curvature="0"
           style="fill:#ffffff;fill-opacity:1;stroke:#000000;stroke-width:1;stroke-opacity:1"
           id="path3097"
           d="m 367.73454,262.52135 c -3,2 -3.087,5.721 -1.962,7.596 1.125,1.875 3.462,1.904 4.962,1.404 1,-0.5 2.5,-3 2.625,-5.25 0.125,-2.25 -1.125,-4.25 -5.625,-3.75 z" />
        <path
           inkscape:connector-curvature="0"
           style="fill:#ffffff;fill-opacity:1;stroke:#000000;stroke-width:1;stroke-opacity:1"
           id="path3099"
           d="m 356.73454,249.52135 c 2.703,1.395 7.174,-0.087 7.174,-0.087 0,0 -0.174,-5.913 -0.174,-5.913 -1,-4 -4,-5 -6,-3 -1,2 -1,7 -1,9 z" />
        <path
           inkscape:connector-curvature="0"
           style="fill:#ffffff;fill-opacity:1;stroke:#000000;stroke-width:1;stroke-opacity:1"
           id="path3101"
           d="m 371.73454,239.52135 c -1,0 -4.133,-0.523 -5.133,0.477 -1.954,1.959 -2.867,8.523 0.133,10.523 1.872,0.477 5,0.913 6,-3.087 0,0 0,-2.913 0,-2.913 0,0 -0.041,-3.256 -1,-5 z" />
        <path
           inkscape:connector-curvature="0"
           style="fill:#ffffff;fill-opacity:1;stroke:#000000;stroke-width:1;stroke-opacity:1"
           id="path3103"
           d="m 381.73454,271.52135 c 0.913,0.395 2,-1 3,-2 7,-7 -7.564,-12.61 -5,-2 0,0 0.954,3.826 2,4 z" />
        <path
           inkscape:connector-curvature="0"
           style="fill:#ffffff;fill-opacity:1;stroke:#000000;stroke-width:1;stroke-opacity:1"
           id="path3105"
           d="m 353.47254,238.52135 c -1,-0.349 -2.738,0 -3.738,0 -7.779,3.523 2,17 5,8 0,-1 0,-2 0,-3 0,0 -0.564,-4.651 -1.262,-5 z" />
        <path
           inkscape:connector-curvature="0"
           style="fill:#ffffff;fill-opacity:1;stroke:#000000;stroke-width:1;stroke-opacity:1"
           id="path3107"
           d="m 375.73454,239.52135 c 0,0 -1.698,10.128 -1,11 1.308,0.697 5.343,0.523 6.826,-0.523 0,-3 0.184,-6.503 -0.419,-8.334 -0.603,-1.832 -1.907,-1.643 -5.407,-2.143 z" />
        <path
           inkscape:connector-curvature="0"
           style="fill:#ffffff;fill-opacity:1;stroke:#000000;stroke-width:1;stroke-opacity:1"
           id="path3109"
           d="m 385.29854,238.34735 c 0,0 -0.564,5.174 -0.564,5.174 0,3 0.651,8.826 4.651,5.826 0.5,-0.5 1.851,-6.448 1.297,-9.162 -1.03,-1.454 -2.912,-1.6 -5.384,-1.838 z" />
      </g>
      <path
         sodipodi:nodetypes="ccsssccccczczczczczccccccccccccccccccccccccccccczccccccccccc"
         inkscape:connector-curvature="0"
         id="path6602"
         d="m 109.06223,194.45964 c -0.8633,20.20646 4.85063,24.50211 8.52857,34.61693 9.32498,-0.53639 2.25781,-37.61315 2.25781,-37.61315 -0.45962,2.49991 1.95926,-15.22573 4.89675,34.08415 0.18978,3.18561 4.82872,2.00777 4.71394,0.52655 -1.57032,-20.26545 49.09383,-2.44873 55.5614,3.91637 3.57162,16.51516 -6.7347,22.80916 -18.31585,34.39883 -9.8323,-0.42808 -23.28103,-2.92268 -25.88274,0.781 -16.24383,9.13082 -12.7266,11.80588 -11.98486,13.78259 -1.19953,2.33047 8.99439,5.14374 21.32453,17.02702 0,0 -5.82839,19.68806 -1.68867,20.87069 4.13972,1.18263 3.73462,-12.13026 3.73462,-12.13026 0,0 -0.24713,14.73898 1.79773,14.98107 2.04486,0.24209 4.1947,-13.18334 4.1947,-13.18334 0,0 -2.02212,16.44175 1.19849,16.7788 3.22061,0.33705 2.99621,-14.98107 2.99621,-14.98107 0,0 -0.0738,22.65915 2.95987,19.63585 3.03369,-3.0233 4.23105,-11.24645 4.23105,-11.24645 0,0 -2.98655,16.26533 1.83408,17.06337 4.82063,0.79804 4.75759,-14.06716 4.75759,-14.06716 l -0.74464,16.39143 c 2.91555,2.24442 5.83111,3.32289 8.74666,2.18511 l 0.38738,-16.17956 1.76139,18.75204 c 0.12797,1.06388 4.02075,0.98688 7.47548,0.38739 0.39949,-5.19344 -0.0485,-9.75129 0.35102,-14.94473 l 1.79773,14.98107 c 1.99748,0.55384 4.84241,1.34189 6.83989,-0.8111 l -0.24821,-16.56695 2.39074,14.98108 5.04215,-1.51316 1.5194,-17.83813 0.0665,14.91461 5.29036,-2.36062 0.67195,-18.97015 1.47682,15.05378 c 0.69136,1.214 4.7437,-1.53974 7.0881,-3.63182 l -0.17552,-15.61666 2.11241,13.46791 c 1.00007,0.77418 2.73919,0.0702 4.86665,-1.41035 l -1.33765,-14.63005 2.07605,10.75003 c 1.48098,0.20469 2.96195,0.90037 4.44292,-2.14876 l -1.33765,-11.03459 2.6753,9.20051 c 0.99421,1.06985 2.4669,-0.25271 4.01919,-1.97324 l -2.748,-13.70989 c 8.78889,-7.79016 -1.31641,-7.07605 25.94296,-23.15862 -0.71352,-5.26627 -10.56847,-7.41878 -18.0074,-11.63383 -7.43893,-4.21505 -11.03548,4.0203 -18.58278,4.26116 -3.48893,0.61463 -19.75939,-11.7152 -19.65973,-33.55761 0.96579,-5.09791 5.20119,-6.84139 13.42533,-10.18089 8.84382,-3.40288 17.18705,-3.35778 27.34708,-3.28079 14.53779,4.92183 10.8344,4.67321 14.63628,2.85082 10.06358,-3.15228 9.93713,-26.48631 12.19048,-37.78242 l 4.47045,-0.14024 c -3.82163,13.99372 -10.2822,30.79969 -9.72447,40.96146 0.42482,3.10003 2.04295,5.00674 4.72749,5.84704 8.05196,-14.28044 8.83828,-32.87289 11.98486,-51.5349 -7.34273,-16.2959 -135.95163,-18.71895 -182.4908,14.59369"
         style="color:#000000;fill:#000000;fill-opacity:1;fill-rule:nonzero;stroke:none;stroke-width:3;marker:none;visibility:visible;display:inline;overflow:visible;enable-background:accumulate" />
      <path
         sodipodi:nodetypes="cczcscc"
         inkscape:connector-curvature="0"
         id="path6607"
         d="m 270.83762,224.56342 c 0.0344,5.4534 5.59637,12.56737 12.21322,14.84336 1.44819,8.00407 1.95281,13.44564 0.46229,21.04949 -1.49052,7.60384 -7.83127,10.74722 -13.80974,12.42509 2.62629,-2.79797 -24.55371,-8.23271 -15.88983,-13.77119 4.90167,-3.13344 7.62297,-3.56676 11.46417,-10.94204 1.08449,-17.14861 -1.37115,-18.93669 -1.15772,-23.2816"
         style="color:#000000;fill:#000000;fill-opacity:1;fill-rule:nonzero;stroke:none;stroke-width:3;marker:none;visibility:visible;display:inline;overflow:visible;enable-background:accumulate" />
      <path
         style="color:#000000;fill:#000000;fill-opacity:1;fill-rule:nonzero;stroke:none;stroke-width:3;marker:none;visibility:visible;display:inline;overflow:visible;enable-background:accumulate"
         d="m 119.55793,229.20718 c -0.0344,5.4534 -3.47773,10.23686 -10.09458,12.51285 -1.44819,8.00407 -1.95281,13.44564 -0.46229,21.04949 1.49052,7.60384 10.79737,17.10315 17.6233,16.45051 0.55168,-3.00983 -2.41369,-9.58731 11.01695,-14.61865 6.01295,-2.25255 -2.21463,-7.35403 -7.43875,-15.39119 -5.22412,-8.03715 -0.53563,-15.97058 -0.74906,-20.31549"
         id="path6612"
         inkscape:connector-curvature="0"
         sodipodi:nodetypes="cczcszc" />
      <path
         sodipodi:nodetypes="ccccccccccccccccccccccccccccccccccccccccccccccccccccccccccccccccccccccccccccc"
         inkscape:connector-curvature="0"
         id="path6622"
         d="m 242.79661,328.17797 -0.21186,-10.1695 -4.02543,1.69492 0.21187,12.92373 -1.27119,0.63559 -0.42373,-10.80509 -2.9661,2.11865 0.63559,12.92373 -2.54237,1.48305 c 2.57053,1.75124 0.0706,-8.5452 0,-12.07627 l -4.66102,2.33051 0.6356,14.40678 -2.33051,0.84746 -0.21187,-13.1356 -5.08474,3.38983 1.27118,12.5 -2.11864,1.48305 -0.42373,-12.5 -4.87288,3.38983 0.84746,12.71187 -1.27119,1.27119 -1.05932,-12.92374 -3.6017,2.33051 0.21187,14.61865 -0.63559,0.63559 -0.42373,-14.8305 -5.50847,0.63559 0.21186,18.4322 -1.05932,0.84746 -0.21187,-17.58475 -5.9322,0.42373 0,17.16101 -1.27119,0.6356 -0.63559,-18.22034 -6.77967,-0.21187 0.21187,17.37289 -1.48305,-0.21187 0.21186,-17.58474 -4.44915,-0.63559 0.21187,17.79661 -1.69492,-1.27119 -0.21186,-18.4322 -3.81356,-1.05933 0,17.79661 -1.27119,-0.63559 -0.21186,-18.00848 -5.29661,-3.60169 -0.42373,17.79661 -1.27119,-0.84746 0,-18.64406 -4.02542,-1.90678 -1.27119,14.40678 -0.6356,-0.6356 0.21188,-16.10169 -4.2373,-1.90678 -0.42373,13.55932 -1.27118,-0.21186 0,-16.52543 -4.44915,-1.27118 0.84745,12.92372 -1.27118,-0.42373 -0.42373,-15.4661 -3.6017,-1.05932 -0.21187,13.77119 c -5.4391,0.43622 -8.34319,-27.86746 -11.65253,-48.72882 l -6.14407,-1.69491 c 0.0486,15.4551 -3.02394,29.34961 0.21186,46.3983 1.6088,13.31614 34.52968,36.92047 52.33051,55.29661 4.32501,1.75058 9.22333,2.99951 18.00848,0.84746 l 0.63558,-4.44915 2.11866,4.02543 c 3.92452,0.70616 9.69818,0.0454 12.5,-3.17797 15.8945,-25.47603 43.58406,-42.90377 45.33898,-58.47458 1.79367,-16.21466 2.41619,-27.31661 2.3305,-42.58474 l -9.53389,4.23728 c -1.58864,12.46435 -0.67435,22.42576 -9.11017,41.73729 l -1.27119,0.21187"
         style="color:#000000;fill:#000000;fill-opacity:1;fill-rule:nonzero;stroke:none;stroke-width:3;marker:none;visibility:visible;display:inline;overflow:visible;enable-background:accumulate" />
      <path
         sodipodi:nodetypes="cccccccccccccccccccccccczzczccc"
         inkscape:connector-curvature="0"
         id="path6646"
         d="m 77.118644,328.17797 c -2.739792,2.97546 -0.772067,5.16634 -0.423729,7.62711 l 5.084746,2.96611 c 0.402036,-2.55461 0.21795,-3.90336 2.754237,-6.99153 11.372609,-5.95431 28.672312,-20.12712 43.008472,-29.66102 l -0.21186,-4.44915 -11.65254,6.35593 -0.6356,-1.48305 11.65255,-6.56779 2.11864,-12.5 c -10.40152,5.39512 -28.954803,12.40294 -43.432204,24.3644 l -0.211864,1.69492 c -4.040424,-0.29249 -11.266043,-2.70844 -12.076272,-0.84746 -3.337125,1.76554 -2.934785,3.31921 -1.906779,5.08475 -8.407544,0.81394 -11.830777,-0.12275 -24.364407,2.75423 -3.221439,0.92713 -2.800933,3.06824 -2.754237,5.08475 -0.992937,2.93955 2.717549,3.99772 4.237288,5.9322 l 1.271186,2.11865 2.330509,1.05931 -3.81356,3.17797 c -1.786053,-0.54419 -7.333795,7.38049 -2.754237,11.22882 -0.749529,1.75871 2.248628,1.52118 3.601695,2.75424 1.463691,1.97167 3.268517,1.5554 5.29661,-0.42373 l 3.601695,6.14406 c -0.452243,1.08784 5.627341,1.12616 8.050847,0.21187 2.423507,-0.91429 12.902071,-8.08035 12.711865,-12.92373 -0.190206,-4.84338 -3.813559,-4.02542 -3.813559,-4.02542 0,0 -2.727982,-4.16484 -0.635593,-8.05085 2.092389,-3.88601 24.307728,-15.29518 37.076267,-23.51695 l 1.90678,1.05932 c -14.321163,7.4196 -24.104642,14.85813 -36.016946,21.82204"
         style="color:#000000;fill:#000000;fill-opacity:1;fill-rule:nonzero;stroke:none;stroke-width:3;marker:none;visibility:visible;display:inline;overflow:visible;enable-background:accumulate" />
      <path
         style="color:#000000;fill:#000000;fill-opacity:1;fill-rule:nonzero;stroke:none;stroke-width:3;marker:none;visibility:visible;display:inline;overflow:visible;enable-background:accumulate"
         d="m 317.58329,331.17419 c 2.73979,2.97546 0.77206,5.16634 0.42372,7.62711 l -5.08474,2.96611 c -0.40204,-2.55461 -3.81341,-4.5026 -6.3497,-7.59077 3.54618,10.11744 -14.69598,-15.39874 -39.41301,-29.06178 l 0.21186,-4.44915 11.65254,6.35593 0.6356,-1.48305 -11.65255,-6.56779 -2.11864,-12.5 c 10.40152,5.39512 28.9548,12.40294 43.4322,24.3644 l 0.21187,1.69492 c 4.04042,-0.29249 11.26604,-2.70844 12.07627,-0.84746 3.33713,1.76554 2.93479,-2.07398 1.90678,-0.30844 6.96037,-5.45718 8.63059,-8.59704 24.36441,8.14742 3.22144,0.92713 2.80093,3.06824 2.75424,5.08475 0.99293,2.93955 -2.71755,3.99772 -4.23729,5.9322 l -1.27119,2.11865 -2.33051,1.05931 3.81356,3.17797 c 1.78606,-0.54419 7.3338,7.38049 2.75424,11.22882 0.74953,1.75871 -2.24863,1.52118 -3.60169,2.75424 -1.4637,1.97167 -3.26852,1.5554 -5.29661,-0.42373 l -3.6017,6.14406 c 0.45224,1.08784 -5.62734,1.12616 -8.05085,0.21187 -2.4235,-0.91429 -12.90207,-8.08035 -12.71187,-12.92373 0.19021,-4.84338 3.81356,-4.02542 3.81356,-4.02542 0,0 2.72799,-4.16484 0.6356,-8.05085 -2.09239,-3.88601 -24.30773,-15.29518 -37.07627,-23.51695 l -1.90678,1.05932 c 14.32116,7.4196 24.10464,14.85813 36.01695,21.82204"
         id="path6651"
         inkscape:connector-curvature="0"
         sodipodi:nodetypes="cccccccccccccccccccccccczzczccc" />
      <path
         sodipodi:nodetypes="ccccscczcccccsssccccccc"
         inkscape:connector-curvature="0"
         id="path6658"
         d="m 103.6017,187.71186 1.27118,9.32204 L 63.135593,172.88136 61.228814,175 c 2.471369,1.34251 2.603849,2.78988 5.29661,3.60169 17.272205,5.2072 26.40818,14.01559 39.194916,21.18645 l 0.63559,6.56779 C 86.672069,197.51879 59.5207,177.50619 46.822033,181.99152 c -12.698666,4.48533 -10.368153,3.66622 -14.406778,4.44916 -10.650657,-1.43445 -10.75679,-8.35247 -14.194916,-15.88983 -0.380487,-8.99542 3.852326,-14.44215 10.805085,-17.79661 4.257554,-0.98885 6.890089,0.86607 8.898305,3.81356 -2.950021,-6.92705 -3.622019,-3.76157 -2.542373,-9.11017 0.446682,-1.42576 3.827432,-2.22784 5.167827,-2.88789 1.340395,-0.66005 2.952338,-0.74518 4.354801,-0.22999 1.402464,0.51519 2.575982,1.62355 3.170359,2.99433 0.594378,1.37078 0.601365,2.98496 0.01888,4.36083 1.525929,-0.35058 2.634093,-2.78999 4.661017,-0.63559 l 3.81356,4.44915 2.966101,-2.54237 7.838983,5.72034 1.483051,4.44916 c 18.114562,12.92619 24.834641,17.66592 34.745765,24.57626"
         style="color:#000000;fill:#000000;fill-opacity:1;fill-rule:nonzero;stroke:none;stroke-width:3;marker:none;visibility:visible;display:inline;overflow:visible;enable-background:accumulate" />
    </g>
  </g>
</svg>
